<?xml version="1.0" encoding="UTF-8" standalone="no"?>
<svg
   viewBox="0 0 32 32"
   version="1.1"
   id="svg7"
   sodipodi:docname="OpenAI_Logo.svg"
   xml:space="preserve"
   inkscape:version="1.4.2 (f4327f4, 2025-05-13)"
   width="32"
   height="32"
   xmlns:inkscape="http://www.inkscape.org/namespaces/inkscape"
   xmlns:sodipodi="http://sodipodi.sourceforge.net/DTD/sodipodi-0.dtd"
   xmlns="http://www.w3.org/2000/svg"
   xmlns:svg="http://www.w3.org/2000/svg"><defs
     id="defs7" /><sodipodi:namedview
     id="namedview7"
     pagecolor="#ffffff"
     bordercolor="#666666"
     borderopacity="1.0"
     inkscape:showpageshadow="2"
     inkscape:pageopacity="0.0"
     inkscape:pagecheckerboard="0"
     inkscape:deskcolor="#d1d1d1"
     inkscape:zoom="14.448948"
     inkscape:cx="33.255016"
     inkscape:cy="24.638472"
     inkscape:window-width="3200"
     inkscape:window-height="1711"
     inkscape:window-x="7671"
     inkscape:window-y="-9"
     inkscape:window-maximized="1"
     inkscape:current-layer="svg7"><inkscape:page
       x="0"
       y="0"
       width="32"
       height="32"
       id="page12"
       margin="0"
       bleed="0"
       inkscape:export-filename="Page 2.png"
       inkscape:export-xdpi="960"
       inkscape:export-ydpi="960" /></sodipodi:namedview><path
     style="opacity:1;fill:none;stroke:#050505;stroke-width:1.97138;stroke-dasharray:none"
     d="m 19.390209,5.1794103 c -0.15993,1.9108 -2.93039,4.23455 -5.29714,6.7979497 l -2.33691,2.41352 0.0542,3.35906 -0.0542,-3.35906 c -0.0408,-2.52953 0.99391,-6.8831197 0.92334,-9.0190797 0.61968,-1.11957 2.12441,-1.57641 3.33786,-1.58238 1.2459,0.0601 2.50015,0.461 3.37285,1.38999 1.20919,0.49957 2.64142,-0.015 3.88918,0.80243 1.24776,0.81747 1.36589,2.30283 2.06954,3.33273 1.45031,0.0314 2.71246,1.2815197 2.96895,2.6440397 0.13541,1.11664 0.3663,3.17606 -1.01754,3.07882 -1.38385,-0.0972 -7.4347,-0.77736 -7.4347,-0.77736 l -2.41353,-2.3369 -3.35904,0.0542 3.35904,-0.0542 c 0,0 7.74892,-1.63695 7.89682,-2.6085997 m -7.766,10.7180697 -3.35905,0.0542 c -2.46912,0.0398 -6.6230497,-1.69866 -7.7695997,-2.87284 -0.98179,-0.84087 -1.7516,-1.90964 -2.73049,-2.7286 -0.0279,-1.19227 -0.22112,-2.5621 0.46531,-3.6333 0.57781,-1.0410997 1.66126,-1.6039797 2.78659,-1.7608797 0.0756,-1.19833 0.69514,-2.36742 1.71842,-3.04816 1.15844,-0.85337 2.6373097,-0.64443 3.9853897,-0.67125 m 15.71848,8.7792297 c 1.00126,0.51089 1.26997,1.81644 1.18046,2.84378 -0.19219,1.21667 -1.20349,2.47058 -2.57572,2.54377 v 0 l -7.08289,-1.91946 -0.0542,-3.35905 0.0542,3.35905 c 0,0 0.76436,3.14869 0.80274,4.5892 -0.15588,1.18196 -0.21499,3.75697 1.66778,2.52875 1.5118,-0.15906 2.18982,-1.31848 2.40752,-2.12267 1.18537,-0.23806 2.03406,-2.03054 2.20487,-3.07582 m -4.61239,5.19849 c 0.14221,0.57348 1.20051,2.65468 0.072,3.35086 -1.12851,0.69617 -3.50242,-0.77915 -5.18476,0.003 -1.40315,0.62834 -2.80064,-0.41435 -4.19051,-0.19304 -1.41986,0.22609 -4.2726897,0.89531 -5.3413997,-0.36067 -1.10267,-1.2959 1.45337,-3.61687 -0.13307,-4.55938 -1.51147,-1.39456 -3.03166,-2.78789 -4.48054,-4.24366 -0.83989,-1.12756 -1.00734,-2.87217 -0.0973,-4.00327 0.15322,-0.13482 0.50424,-0.18386 0.68902,-0.2448 m -0.59171,4.24807 4.48054,4.24366 c 0.87651,0.83016 8.3210197,-1.24112 9.9703097,-2.94448 l 2.3369,-2.41352 M 6.9756993,9.0919303 c 0.77956,1.2967197 1.8934,5.6629997 4.8346597,8.6587297 l 2.41352,2.33689"
     id="path10"
     sodipodi:nodetypes="ccccsccczcczccccccscccccccccccccccccczcsscccccsscccc" /></svg>
